# xmcd CD database file
#
# Track frame offsets:
#	150
#	10705
#	23061
#	37453
#	46629
#	59549
#	72493
#	84415
#	101346
#	117009
#	130871
#	142764
#	159876
#	169741
#	187882
#	208974
#	220396
#	235763
#	254872
#	266494
#	286511
#	302596
#	315715
#	329501
#	340501
#
# Disc length: 4716 seconds
#
# Revision: 0
# Processed by: cddbd v1.5.2PL0 Copyright (c) Steve Scherf et al.
# Submitted via: CDex 1.51
#
DISCID=5d126a19
DTITLE=Jimmy Rushing - Four Classic Albums Plus - CD2
DYEAR=1900
DGENRE=Jazz
TTITLE0=I'm Coming Virginia ( Little Jimmy Rushing And The Big Brass - 1958 )
TTITLE1=Knock Me A Kiss
TTITLE2=Harvard Blues
TTITLE3=Mister Five By Five
TTITLE4=Trav'lin' Light
TTITLE5=June Night
TTITLE6=It's a Sin To Tell A Lie
TTITLE7=Rosalie
TTITLE8=Jimmy's Blues
TTITLE9=Someday Sweatheart
TTITLE10=When You're Smiling
TTITLE11=Somebody Stole My Gal
TTITLE12=There'll Be Some Changes Made ( Brubeck and Rushing - 1960 )
TTITLE13=My Melancholy Baby
TTITLE14=Blues In The Dark
TTITLE15=I Never Knew
TTITLE16=Ain't Misbehaving
TTITLE17=Evenin'
TTITLE18=All By Miself
TTITLE19=River, Stay Away From My Door
TTITLE20=You Can Depend On Me
TTITLE21=Am I Blue
TTITLE22=Go Get Some More, You Fool ( The Way I Feel - 1952 )
TTITLE23=Hi-O-Silvester
TTITLE24=The Way I Feel
EXTD=
EXTT0=
EXTT1=
EXTT2=
EXTT3=
EXTT4=
EXTT5=
EXTT6=
EXTT7=
EXTT8=
EXTT9=
EXTT10=
EXTT11=
EXTT12=
EXTT13=
EXTT14=
EXTT15=
EXTT16=
EXTT17=
EXTT18=
EXTT19=
EXTT20=
EXTT21=
EXTT22=
EXTT23=
EXTT24=
PLAYORDER=
